<?xml version="1.0" standalone="no"?>
<!DOCTYPE svg PUBLIC "-//W3C//DTD SVG 20010904//EN"
 "http://www.w3.org/TR/2001/REC-SVG-20010904/DTD/svg10.dtd">
<svg version="1.0" xmlns="http://www.w3.org/2000/svg"
 width="512.000000pt" height="512.000000pt" viewBox="0 0 512.000000 512.000000"
 preserveAspectRatio="xMidYMid meet">

<g transform="translate(0.000000,512.000000) scale(0.100000,-0.100000)"
fill="#000000" stroke="none">
<path d="M2310 4583 c-685 -70 -1307 -405 -1739 -937 -160 -196 -328 -492
-416 -730 -70 -189 -124 -438 -145 -661 -34 -372 26 -788 166 -1143 76 -191
214 -450 278 -520 35 -39 90 -62 148 -62 48 0 78 12 277 109 124 60 240 121
259 136 110 88 89 260 -40 326 -72 37 -129 27 -277 -46 -73 -36 -136 -65 -141
-65 -13 0 -73 120 -125 250 -188 467 -204 989 -45 1466 l32 94 31 -14 c18 -8
86 -40 152 -72 145 -70 213 -81 280 -42 81 47 123 149 95 233 -23 71 -65 104
-228 182 -109 52 -151 76 -146 85 153 260 441 544 728 717 232 141 535 247
809 285 l97 13 0 -171 c0 -158 2 -175 23 -216 12 -24 39 -58 60 -74 36 -29 45
-31 117 -31 72 0 81 2 117 31 21 16 48 50 61 74 20 41 22 58 22 215 l0 171 92
-12 c181 -25 334 -66 525 -140 129 -51 177 -55 243 -21 124 62 145 226 41 320
-42 38 -227 115 -386 160 -117 34 -315 73 -437 86 -89 10 -446 13 -528 4z"/>
<path d="M4125 3865 c-72 -38 -1410 -968 -1730 -1204 -271 -199 -338 -269
-393 -411 -130 -330 62 -703 408 -795 71 -19 229 -19 300 0 89 23 197 84 259
145 72 71 184 219 458 605 336 474 953 1372 969 1410 32 77 3 171 -69 229 -32
26 -48 31 -105 34 -46 2 -76 -2 -97 -13z m-727 -1007 c-13 -18 -116 -163 -228
-323 -488 -693 -496 -701 -626 -693 -76 5 -126 38 -161 108 -47 90 -21 178 75
257 106 88 937 682 956 683 4 0 -3 -15 -16 -32z"/>
<path d="M4618 3180 c-48 -26 -84 -73 -99 -132 -12 -43 -11 -53 15 -125 90
-252 118 -341 140 -453 89 -444 43 -887 -135 -1292 -55 -125 -88 -188 -99
-188 -5 0 -72 29 -148 65 -115 54 -147 65 -191 65 -186 0 -272 -231 -128 -345
19 -15 137 -77 263 -136 202 -96 235 -109 282 -109 58 0 113 23 148 62 33 35
126 191 182 303 305 612 354 1316 137 1958 -75 221 -123 305 -191 333 -48 20
-132 17 -176 -6z"/>
</g>
</svg>
