<?xml version="1.0" standalone="no"?>
<!DOCTYPE svg PUBLIC "-//W3C//DTD SVG 20010904//EN"
 "http://www.w3.org/TR/2001/REC-SVG-20010904/DTD/svg10.dtd">
<svg version="1.0" xmlns="http://www.w3.org/2000/svg"
 width="512.000000pt" height="512.000000pt" viewBox="0 0 512.000000 512.000000"
 preserveAspectRatio="xMidYMid meet">

<g transform="translate(0.000000,512.000000) scale(0.100000,-0.100000)"
fill="#000000" stroke="none">
<path d="M971 4944 c-169 -45 -301 -180 -346 -351 -23 -86 -23 -3440 0 -3526
46 -178 193 -320 368 -357 35 -7 240 -10 633 -8 l581 3 35 27 c44 33 73 103
64 149 -9 47 -44 97 -79 117 -29 15 -88 17 -614 22 -568 5 -582 5 -609 26 -15
11 -37 33 -48 48 l-21 27 0 1709 0 1709 21 27 c11 15 33 37 48 48 27 21 33 21
1272 24 1377 3 1286 7 1340 -64 l29 -37 5 -1031 c5 -979 6 -1033 23 -1061 31
-50 76 -75 136 -75 68 0 113 26 140 84 21 42 21 51 21 1053 0 645 -4 1030 -10
1064 -34 177 -177 327 -355 374 -86 22 -2550 22 -2634 -1z"/>
<path d="M1360 4278 c-47 -32 -71 -68 -77 -116 -7 -55 26 -123 75 -154 36 -22
45 -23 332 -26 204 -2 307 0 335 8 74 22 115 78 115 157 0 57 -26 105 -72 133
-31 19 -51 20 -354 20 -317 0 -322 0 -354 -22z"/>
<path d="M1394 3639 c-104 -30 -146 -168 -77 -249 53 -63 -4 -60 976 -60 l894
0 33 23 c72 49 95 115 65 193 -12 32 -29 53 -58 72 l-41 27 -880 2 c-514 1
-894 -2 -912 -8z"/>
<path d="M1374 2976 c-17 -8 -44 -31 -60 -52 -24 -31 -29 -47 -29 -94 0 -46 5
-63 27 -92 55 -73 -6 -69 992 -66 886 3 895 3 922 24 52 39 69 71 69 133 0 48
-5 64 -29 95 -53 69 -1 66 -978 66 -721 -1 -889 -3 -914 -14z"/>
<path d="M1360 2308 c-50 -34 -72 -71 -77 -125 -5 -65 26 -120 87 -150 l44
-23 756 0 c715 0 757 1 796 19 55 25 87 71 92 135 4 59 -20 105 -77 143 l-34
23 -777 0 -777 0 -33 -22z"/>
<path d="M3414 2219 c-41 -12 -97 -74 -117 -130 -115 -316 -139 -360 -247
-469 -91 -91 -165 -135 -319 -191 -64 -23 -137 -50 -162 -61 -174 -72 -166
-286 12 -351 331 -123 359 -138 469 -247 92 -92 135 -165 195 -329 65 -180 74
-198 116 -236 69 -62 176 -58 242 10 24 25 46 71 86 182 30 81 64 168 76 193
61 120 173 235 297 303 35 19 129 59 211 88 156 56 197 83 223 146 18 41 18
95 0 136 -26 63 -67 90 -223 146 -179 64 -241 96 -328 168 -120 98 -179 197
-266 441 -32 90 -53 133 -76 157 -48 49 -117 65 -189 44z m96 -616 c82 -147
226 -290 373 -373 31 -17 57 -33 57 -35 0 -2 -26 -18 -57 -35 -147 -83 -290
-226 -373 -373 l-33 -59 -20 34 c-106 178 -250 323 -405 408 l-42 24 32 19
c178 106 324 250 408 405 13 23 25 42 26 42 1 0 17 -26 34 -57z"/>
</g>
</svg>
