<svg version="1.1" id="Layer_1" xmlns="http://www.w3.org/2000/svg" xmlns:xlink="http://www.w3.org/1999/xlink" x="0px" y="0px"
	 width="100%" viewBox="0 0 512 512" enable-background="new 0 0 512 512" xml:space="preserve">
<path fill="#FBD303" opacity="1.000000" stroke="none" 
	d="
M235.000000,1.000000 
	C249.354233,1.000000 263.708466,1.000000 278.732208,1.377165 
	C287.347321,2.819546 295.305115,3.801305 303.236145,4.965683 
	C326.660095,8.404614 348.729553,16.196671 369.897827,26.512121 
	C389.670197,36.147312 407.873657,48.200569 424.437714,62.805935 
	C440.349274,76.835960 454.710938,92.169777 466.990509,109.471764 
	C479.716949,127.403328 489.947205,146.699310 497.542328,167.273941 
	C504.150635,185.175293 509.021179,203.604050 511.040375,222.685150 
	C511.477203,226.812988 512.335693,230.896210 513.000000,235.000000 
	C513.000000,249.354233 513.000000,263.708466 512.622803,278.732147 
	C511.833282,283.324860 511.725006,287.308990 510.954041,291.160431 
	C508.207153,304.882751 505.870026,318.732849 502.201202,332.214355 
	C496.476227,353.251526 487.215698,372.930664 475.701172,391.393524 
	C469.851105,400.773804 462.612274,409.287964 455.772156,417.885803 
	C451.127838,400.387817 446.509308,383.246307 442.380829,365.987610 
	C440.224457,356.973053 436.331421,349.190277 429.532288,342.445923 
	C429.766449,330.994019 429.989471,319.963837 424.561493,309.885773 
	C414.699219,291.574677 398.867889,283.165497 378.489075,282.997559 
	C354.726685,282.801727 330.961395,282.958374 307.116913,282.701782 
	C306.974701,282.270630 306.912933,282.099792 307.044678,281.647552 
	C322.850372,271.664673 336.032379,259.414703 344.675018,243.081726 
	C349.209595,234.512268 352.272705,225.164154 356.320923,216.035934 
	C357.512085,214.906631 358.507690,213.992264 359.235107,212.899429 
	C382.175903,178.432632 388.494995,141.029297 375.168396,101.900375 
	C358.870911,54.048458 324.791473,25.134914 274.748688,16.779232 
	C236.958160,10.469319 202.799423,20.456696 173.838943,45.404305 
	C131.593536,81.796013 118.327164,137.623184 139.299149,189.223465 
	C143.163177,198.730667 149.730423,207.139175 155.003113,216.046234 
	C154.956253,216.037659 154.961334,215.942535 154.944611,216.254074 
	C154.993027,216.763138 155.058182,216.960648 155.274384,217.464508 
	C156.160477,219.413162 157.065063,221.001816 157.604324,222.706070 
	C162.910721,239.475845 171.573410,254.262039 184.559784,266.137939 
	C191.236206,272.243469 198.847427,277.326752 205.564880,282.898254 
	C181.778641,282.933960 158.461670,282.753632 135.149506,283.010162 
	C114.921577,283.232727 99.223976,291.700989 89.448975,309.870361 
	C83.840164,320.295746 84.226692,331.693848 84.295830,343.331207 
	C77.719940,349.610291 73.834602,356.921814 71.807076,365.438446 
	C67.919785,381.767059 63.720753,398.021301 59.726025,414.324768 
	C59.263115,416.214020 59.274933,418.219604 58.749496,420.005585 
	C54.971409,415.307373 51.360493,410.880615 48.075966,406.223633 
	C35.038296,387.738190 24.246157,367.987793 16.462793,346.757568 
	C9.891134,328.832428 4.979605,310.410248 2.960106,291.320251 
	C2.523236,287.190582 1.664448,283.105591 0.999999,279.000000 
	C1.000000,264.645782 1.000000,250.291550 1.377167,235.267792 
	C2.819549,226.652649 3.801301,218.694809 4.965693,210.763763 
	C8.404658,187.339859 16.196669,165.270370 26.512154,144.102127 
	C36.147392,124.329796 48.200630,106.126297 62.806004,89.562241 
	C76.836021,73.650688 92.169823,59.289009 109.471794,47.009441 
	C127.403358,34.283035 146.699356,24.052748 167.273972,16.457640 
	C185.175308,9.849358 203.604065,4.978809 222.685165,2.959661 
	C226.813004,2.522854 230.896225,1.664297 235.000000,1.000000 
z"/>
<path fill="#FFFFFF" opacity="1.000000" stroke="none" 
	d="
M0.999999,279.468658 
	C1.664448,283.105591 2.523236,287.190582 2.960106,291.320251 
	C4.979605,310.410248 9.891134,328.832428 16.462793,346.757568 
	C24.246157,367.987793 35.038296,387.738190 48.075966,406.223633 
	C51.360493,410.880615 54.971409,415.307373 58.909271,420.284546 
	C61.339794,422.975159 63.129471,425.393097 65.274796,427.437958 
	C75.573318,437.254089 85.690666,447.288940 96.427773,456.606079 
	C103.374184,462.633850 111.277161,467.559296 119.014420,473.226471 
	C131.523071,479.819122 143.768799,486.164001 156.268951,492.737061 
	C167.691925,496.911102 178.678192,501.532928 190.081573,504.607941 
	C200.936600,507.535156 212.227173,508.847229 223.644501,511.112976 
	C227.641830,511.904419 231.320908,512.452209 235.000000,513.000000 
	C157.072968,513.000000 79.145927,513.000000 1.000000,513.000000 
	C1.000000,435.312561 1.000000,357.624939 0.999999,279.468658 
z"/>
<path fill="#FFFFFF" opacity="1.000000" stroke="none" 
	d="
M456.001282,418.193665 
	C462.612274,409.287964 469.851105,400.773804 475.701172,391.393524 
	C487.215698,372.930664 496.476227,353.251526 502.201202,332.214355 
	C505.870026,318.732849 508.207153,304.882751 510.954041,291.160431 
	C511.725006,287.308990 511.833282,283.324860 512.622803,279.200806 
	C513.000000,356.927185 513.000000,434.854370 513.000000,513.000000 
	C434.979248,513.000000 356.958282,513.000000 278.669434,512.621033 
	C282.302155,511.831543 286.202759,511.421021 290.476715,511.004059 
	C313.820923,508.179626 336.064850,502.703735 357.394379,492.856293 
	C358.119110,492.565125 358.567291,492.290985 359.010010,492.009186 
	C359.004547,492.001526 359.023315,492.017792 359.317810,492.024719 
	C360.074707,491.727814 360.537140,491.423981 361.332336,490.957642 
	C373.140533,484.520599 384.616028,478.246094 396.431885,471.921326 
	C416.294037,459.662781 433.423218,444.643463 448.710999,427.490448 
	C451.326019,424.556335 453.580322,421.300751 456.001282,418.193665 
z"/>
<path fill="#FFFFFF" opacity="1.000000" stroke="none" 
	d="
M234.531342,1.000000 
	C230.896225,1.664297 226.813004,2.522854 222.685165,2.959661 
	C203.604065,4.978809 185.175308,9.849358 167.273972,16.457640 
	C146.699356,24.052748 127.403358,34.283035 109.471794,47.009441 
	C92.169823,59.289009 76.836021,73.650688 62.806004,89.562241 
	C48.200630,106.126297 36.147392,124.329796 26.512154,144.102127 
	C16.196669,165.270370 8.404658,187.339859 4.965693,210.763763 
	C3.801301,218.694809 2.819549,226.652649 1.377167,234.799133 
	C1.000000,157.072952 1.000000,79.145912 1.000000,1.000000 
	C78.687424,1.000000 156.375061,1.000000 234.531342,1.000000 
z"/>
<path fill="#FFFFFF" opacity="1.000000" stroke="none" 
	d="
M513.000000,234.531342 
	C512.335693,230.896210 511.477203,226.812988 511.040375,222.685150 
	C509.021179,203.604050 504.150635,185.175293 497.542328,167.273941 
	C489.947205,146.699310 479.716949,127.403328 466.990509,109.471764 
	C454.710938,92.169777 440.349274,76.835960 424.437714,62.805935 
	C407.873657,48.200569 389.670197,36.147312 369.897827,26.512121 
	C348.729553,16.196671 326.660095,8.404614 303.236145,4.965683 
	C295.305115,3.801305 287.347321,2.819546 279.200867,1.377165 
	C356.927032,1.000000 434.854095,1.000000 513.000000,1.000000 
	C513.000000,78.687424 513.000000,156.375061 513.000000,234.531342 
z"/>
<path fill="#4C5BA8" opacity="1.000000" stroke="none" 
	d="
M290.103394,511.010498 
	C286.202759,511.421021 282.302155,511.831543 278.200745,512.621033 
	C263.979095,513.000000 249.958206,513.000000 235.468658,513.000000 
	C231.320908,512.452209 227.641830,511.904419 223.832123,510.809631 
	C224.107819,509.206482 224.721939,508.182312 224.890411,507.089417 
	C230.890411,468.166473 236.874573,429.240997 242.737366,390.297272 
	C243.034058,388.326477 242.847458,385.801270 241.833130,384.201843 
	C238.281509,378.601471 234.268356,373.293793 230.324524,367.533142 
	C231.006271,365.616547 231.632126,363.932770 232.607361,362.484222 
	C240.196152,351.212250 247.852219,339.985596 255.683044,328.752441 
	C256.138855,328.728729 256.392548,328.669434 256.934479,328.795898 
	C257.444641,329.118164 257.660095,329.226624 257.949951,329.661835 
	C265.629028,341.192078 273.281403,352.363831 280.780457,363.637604 
	C281.763031,365.114777 281.959503,367.114838 282.274078,369.078430 
	C279.649902,372.700439 277.563019,376.374207 274.824860,379.472351 
	C270.777588,384.051727 270.572693,388.892731 271.533081,394.666931 
	C275.602417,419.133057 279.193695,443.678253 283.057068,468.179199 
	C285.310730,482.471283 287.748474,496.734375 290.103394,511.010498 
z"/>
<path fill="#F7CFA2" opacity="1.000000" stroke="none" 
	d="
M356.000336,216.167679 
	C352.272705,225.164154 349.209595,234.512268 344.675018,243.081726 
	C336.032379,259.414703 322.850372,271.664673 306.701477,281.727844 
	C303.910675,283.150940 301.670563,284.243195 299.400330,285.268768 
	C281.133514,293.520355 262.148285,296.825470 242.130768,294.163300 
	C229.607819,292.497894 218.029938,288.124908 206.458542,283.056671 
	C206.305161,283.029327 206.036240,282.871948 206.036240,282.871948 
	C198.847427,277.326752 191.236206,272.243469 184.559784,266.137939 
	C171.573410,254.262039 162.910721,239.475845 157.604324,222.706070 
	C157.065063,221.001816 156.160477,219.413162 155.538208,217.302734 
	C155.421097,216.537247 155.191208,216.239899 154.961334,215.942535 
	C154.961334,215.942535 154.956253,216.037659 155.217255,215.642136 
	C151.395477,194.956024 153.578064,174.462769 152.955872,153.827576 
	C154.135773,153.827576 154.776306,153.784363 155.408966,153.836548 
	C156.736588,153.946060 158.066589,154.060898 159.384323,154.251511 
	C178.464401,157.011627 197.535370,157.323013 216.582947,153.989517 
	C247.764038,148.532516 273.655029,134.402786 291.797699,107.767120 
	C294.867401,103.260414 297.461273,98.429596 300.591187,93.222504 
	C309.670715,122.144531 326.386505,142.259735 358.166412,145.999466 
	C358.166412,148.185898 358.218292,149.996307 358.158539,151.803024 
	C357.448792,173.258240 356.722351,194.712875 356.000336,216.167679 
z"/>
<path fill="#3A3E47" opacity="1.000000" stroke="none" 
	d="
M356.320923,216.035934 
	C356.722351,194.712875 357.448792,173.258240 358.158539,151.803024 
	C358.218292,149.996307 358.166412,148.185898 358.166412,145.999466 
	C326.386505,142.259735 309.670715,122.144531 300.591187,93.222504 
	C297.461273,98.429596 294.867401,103.260414 291.797699,107.767120 
	C273.655029,134.402786 247.764038,148.532516 216.582947,153.989517 
	C197.535370,157.323013 178.464401,157.011627 159.384323,154.251511 
	C158.066589,154.060898 156.736588,153.946060 155.408966,153.836548 
	C154.776306,153.784363 154.135773,153.827576 152.955872,153.827576 
	C153.578064,174.462769 151.395477,194.956024 155.264099,215.650711 
	C149.730423,207.139175 143.163177,198.730667 139.299149,189.223465 
	C118.327164,137.623184 131.593536,81.796013 173.838943,45.404305 
	C202.799423,20.456696 236.958160,10.469319 274.748688,16.779232 
	C324.791473,25.134914 358.870911,54.048458 375.168396,101.900375 
	C388.494995,141.029297 382.175903,178.432632 359.235107,212.899429 
	C358.507690,213.992264 357.512085,214.906631 356.320923,216.035934 
z"/>
<path fill="#F0F1F5" opacity="1.000000" stroke="none" 
	d="
M118.751495,472.978699 
	C111.277161,467.559296 103.374184,462.633850 96.427773,456.606079 
	C85.690666,447.288940 75.573318,437.254089 65.274796,427.437958 
	C63.129471,425.393097 61.339794,422.975159 59.226440,420.450195 
	C59.274933,418.219604 59.263115,416.214020 59.726025,414.324768 
	C63.720753,398.021301 67.919785,381.767059 71.807076,365.438446 
	C73.834602,356.921814 77.719940,349.610291 84.569626,343.180664 
	C94.947693,334.786530 106.957031,332.128754 118.813904,329.738586 
	C118.737671,377.780121 118.744583,425.379425 118.751495,472.978699 
z"/>
<path fill="#F1F3F6" opacity="1.000000" stroke="none" 
	d="
M455.772156,417.885803 
	C453.580322,421.300751 451.326019,424.556335 448.710999,427.490448 
	C433.423218,444.643463 416.294037,459.662781 396.354187,471.461609 
	C395.905243,435.913940 395.854340,400.775726 395.854370,365.637512 
	C395.854370,353.483551 395.980988,341.329620 396.385132,329.323181 
	C408.082550,332.895935 419.936829,335.119507 429.513184,342.903809 
	C436.331421,349.190277 440.224457,356.973053 442.380829,365.987610 
	C446.509308,383.246307 451.127838,400.387817 455.772156,417.885803 
z"/>
<path fill="#755A4E" opacity="1.000000" stroke="none" 
	d="
M429.532288,342.445923 
	C419.936829,335.119507 408.082550,332.895935 396.370483,328.846313 
	C396.005371,325.077301 395.922913,321.931152 395.995514,318.788574 
	C396.059265,316.028290 394.778839,314.957947 392.086639,314.973938 
	C382.321930,315.031982 372.553162,314.871002 362.795685,315.142853 
	C361.465912,315.179932 360.191437,317.202423 358.540527,318.158783 
	C346.138000,314.310150 334.086273,310.608429 321.936096,306.586731 
	C316.829437,299.973755 311.821228,293.680756 306.892639,286.950592 
	C307.047302,285.329651 307.122314,284.145874 307.197357,282.962067 
	C330.961395,282.958374 354.726685,282.801727 378.489075,282.997559 
	C398.867889,283.165497 414.699219,291.574677 424.561493,309.885773 
	C429.989471,319.963837 429.766449,330.994019 429.532288,342.445923 
z"/>
<path fill="#755A4E" opacity="1.000000" stroke="none" 
	d="
M118.897041,329.296356 
	C106.957031,332.128754 94.947693,334.786530 84.765335,342.887024 
	C84.226692,331.693848 83.840164,320.295746 89.448975,309.870361 
	C99.223976,291.700989 114.921577,283.232727 135.149506,283.010162 
	C158.461670,282.753632 181.778641,282.933960 205.564880,282.898254 
	C206.036240,282.871948 206.305161,283.029327 206.487701,283.432983 
	C206.688431,284.837708 206.706635,285.838776 206.489670,287.062195 
	C201.077240,293.662109 195.899979,300.039642 190.348785,306.527710 
	C178.655655,310.113861 167.336441,313.589478 155.870087,316.695679 
	C154.054886,315.879578 152.395538,315.090149 150.717270,315.047607 
	C144.583191,314.892181 138.442795,314.985474 132.304779,314.985413 
	C119.199516,314.985260 119.199692,314.985352 118.942017,327.804047 
	C118.932014,328.301575 118.912254,328.798920 118.897041,329.296356 
z"/>
<path fill="#F0BB7B" opacity="1.000000" stroke="none" 
	d="
M206.724838,286.839844 
	C206.706635,285.838776 206.688431,284.837708 206.641083,283.460327 
	C218.029938,288.124908 229.607819,292.497894 242.130768,294.163300 
	C262.148285,296.825470 281.133514,293.520355 299.400330,285.268768 
	C301.670563,284.243195 303.910675,283.150940 306.507935,282.009277 
	C306.912933,282.099792 306.974701,282.270630 307.116913,282.701782 
	C307.122314,284.145874 307.047302,285.329651 306.555328,286.893433 
	C305.412689,287.601349 304.558350,287.780212 303.980042,288.279114 
	C288.638641,301.512756 273.325775,314.779449 257.767883,328.095154 
	C257.214325,328.258148 256.918335,328.402252 256.639740,328.582123 
	C256.392548,328.669434 256.138855,328.728729 255.460785,328.490417 
	C238.936935,314.427216 222.830887,300.633514 206.724838,286.839844 
z"/>
<path fill="#3A3E47" opacity="1.000000" stroke="none" 
	d="
M154.944611,216.254074 
	C155.191208,216.239899 155.421097,216.537247 155.387146,216.996384 
	C155.058182,216.960648 154.993027,216.763138 154.944611,216.254074 
z"/>
<path fill="#F1F3F7" opacity="1.000000" stroke="none" 
	d="
M156.017242,317.065125 
	C167.336441,313.589478 178.655655,310.113861 190.454926,306.937500 
	C199.266861,333.046783 207.598709,358.856812 215.930573,384.666870 
	C216.463181,384.606964 216.995789,384.547058 217.528397,384.487152 
	C219.667618,381.355408 221.675812,378.122803 223.986099,375.122833 
	C225.953690,372.567841 228.268997,370.280609 230.430466,367.874939 
	C234.268356,373.293793 238.281509,378.601471 241.833130,384.201843 
	C242.847458,385.801270 243.034058,388.326477 242.737366,390.297272 
	C236.874573,429.240997 230.890411,468.166473 224.890411,507.089417 
	C224.721939,508.182312 224.107819,509.206482 223.513870,510.566040 
	C212.227173,508.847229 200.936600,507.535156 190.081573,504.607941 
	C178.678192,501.532928 167.691925,496.911102 156.128693,492.321930 
	C155.771194,445.778442 155.798630,399.878265 155.852081,353.978088 
	C155.866409,341.673737 155.960037,329.369446 156.017242,317.065125 
z"/>
<path fill="#896D61" opacity="1.000000" stroke="none" 
	d="
M155.870087,316.695679 
	C155.960037,329.369446 155.866409,341.673737 155.852081,353.978088 
	C155.798630,399.878265 155.771194,445.778442 155.874268,492.093750 
	C143.768799,486.164001 131.523071,479.819122 119.014420,473.226471 
	C118.744583,425.379425 118.737671,377.780121 118.813904,329.738586 
	C118.912254,328.798920 118.932014,328.301575 118.942017,327.804047 
	C119.199692,314.985352 119.199516,314.985260 132.304779,314.985413 
	C138.442795,314.985474 144.583191,314.892181 150.717270,315.047607 
	C152.395538,315.090149 154.054886,315.879578 155.870087,316.695679 
z"/>
<path fill="#F1F3F7" opacity="1.000000" stroke="none" 
	d="
M322.034576,306.906677 
	C334.086273,310.608429 346.138000,314.310150 358.456116,318.600342 
	C358.704132,355.269379 358.664154,391.349976 358.675598,427.430573 
	C358.682343,448.710815 358.770630,469.991058 358.816772,491.472931 
	C358.811279,491.674561 359.023315,492.017792 359.023315,492.017792 
	C359.023315,492.017792 359.004547,492.001526 358.732971,491.986298 
	C358.013550,492.271820 357.565674,492.572540 357.117828,492.873291 
	C336.064850,502.703735 313.820923,508.179626 290.476715,511.004059 
	C287.748474,496.734375 285.310730,482.471283 283.057068,468.179199 
	C279.193695,443.678253 275.602417,419.133057 271.533081,394.666931 
	C270.572693,388.892731 270.777588,384.051727 274.824860,379.472351 
	C277.563019,376.374207 279.649902,372.700439 282.647430,369.147888 
	C284.828339,370.649689 286.582458,372.146393 287.910583,373.955750 
	C290.497284,377.479523 292.845306,381.178467 296.164795,386.098145 
	C305.132935,358.645294 313.583740,332.775970 322.034576,306.906677 
z"/>
<path fill="#896D61" opacity="1.000000" stroke="none" 
	d="
M358.822235,491.271301 
	C358.770630,469.991058 358.682343,448.710815 358.675598,427.430573 
	C358.664154,391.349976 358.704132,355.269379 358.806915,318.747253 
	C360.191437,317.202423 361.465912,315.179932 362.795685,315.142853 
	C372.553162,314.871002 382.321930,315.031982 392.086639,314.973938 
	C394.778839,314.957947 396.059265,316.028290 395.995514,318.788574 
	C395.922913,321.931152 396.005371,325.077301 396.035095,328.698792 
	C395.980988,341.329620 395.854370,353.483551 395.854370,365.637512 
	C395.854340,400.775726 395.905243,435.913940 396.013855,471.511841 
	C384.616028,478.246094 373.140533,484.520599 360.969421,490.965759 
	C359.789948,491.181335 359.306091,491.226318 358.822235,491.271301 
z"/>
<path fill="#C7BCB8" opacity="1.000000" stroke="none" 
	d="
M358.816772,491.472931 
	C359.306091,491.226318 359.789948,491.181335 360.636688,491.128265 
	C360.537140,491.423981 360.074707,491.727814 359.317810,492.024719 
	C359.023315,492.017792 358.811279,491.674561 358.816772,491.472931 
z"/>
<path fill="#C7BCB8" opacity="1.000000" stroke="none" 
	d="
M357.394379,492.856262 
	C357.565674,492.572540 358.013550,492.271820 358.738464,491.993958 
	C358.567291,492.290985 358.119110,492.565125 357.394379,492.856262 
z"/>
<path fill="#FCFBFC" opacity="1.000000" stroke="none" 
	d="
M321.936096,306.586731 
	C313.583740,332.775970 305.132935,358.645294 296.164795,386.098145 
	C292.845306,381.178467 290.497284,377.479523 287.910583,373.955750 
	C286.582458,372.146393 284.828339,370.649689 282.893402,368.942200 
	C281.959503,367.114838 281.763031,365.114777 280.780457,363.637604 
	C273.281403,352.363831 265.629028,341.192078 257.984589,329.338318 
	C257.965881,328.472229 257.986938,328.256348 258.008026,328.040497 
	C273.325775,314.779449 288.638641,301.512756 303.980042,288.279114 
	C304.558350,287.780212 305.412689,287.601349 306.475708,287.330566 
	C311.821228,293.680756 316.829437,299.973755 321.936096,306.586731 
z"/>
<path fill="#FBFBFC" opacity="1.000000" stroke="none" 
	d="
M230.324524,367.533142 
	C228.268997,370.280609 225.953690,372.567841 223.986099,375.122833 
	C221.675812,378.122803 219.667618,381.355408 217.528397,384.487152 
	C216.995789,384.547058 216.463181,384.606964 215.930573,384.666870 
	C207.598709,358.856812 199.266861,333.046783 190.828857,306.826965 
	C195.899979,300.039642 201.077240,293.662109 206.489670,287.062195 
	C222.830887,300.633514 238.936935,314.427216 255.265228,328.482910 
	C247.852219,339.985596 240.196152,351.212250 232.607361,362.484222 
	C231.632126,363.932770 231.006271,365.616547 230.324524,367.533142 
z"/>
<path fill="#FBFBFC" opacity="1.000000" stroke="none" 
	d="
M257.767883,328.095154 
	C257.986938,328.256348 257.965881,328.472229 257.910156,329.011597 
	C257.660095,329.226624 257.444641,329.118164 256.934479,328.795898 
	C256.918335,328.402252 257.214325,328.258148 257.767883,328.095154 
z"/>
</svg>